<svg width="21" height="21" viewBox="0 0 21 21" fill="none" xmlns="http://www.w3.org/2000/svg">
<path d="M18.5618 17.1992C19.6388 15.9033 20.388 14.367 20.7458 12.7203C21.1035 11.0737 21.0595 9.36504 20.6173 7.73901C20.1751 6.11297 19.3477 4.61736 18.2052 3.3787C17.0628 2.14004 15.6388 1.19476 14.0537 0.622831C12.4686 0.0509035 10.7691 -0.130848 9.09897 0.0929521C7.42881 0.316752 5.83711 0.939519 4.45854 1.90857C3.07996 2.87762 1.95506 4.16445 1.17899 5.6602C0.402928 7.15594 -0.00147194 8.8166 4.02573e-06 10.5017C0.000634515 12.9513 0.863869 15.3225 2.43825 17.1992L2.42325 17.2119C2.47575 17.2749 2.53575 17.3289 2.58975 17.3912C2.65725 17.4684 2.73 17.5412 2.79975 17.6162C3.00875 17.8447 3.22625 18.0622 3.45225 18.2687C3.52225 18.3307 3.59225 18.3912 3.66225 18.4502C3.90225 18.6577 4.14975 18.8532 4.40475 19.0367C4.43775 19.0592 4.46775 19.0884 4.50075 19.1117V19.1027C6.25729 20.3389 8.35281 21.0024 10.5008 21.0024C12.6487 21.0024 14.7442 20.3389 16.5008 19.1027V19.1117C16.5338 19.0884 16.563 19.0592 16.5968 19.0367C16.8518 18.8527 17.0993 18.6572 17.3393 18.4502C17.4093 18.3907 17.4793 18.3302 17.5493 18.2687C17.7748 18.0622 17.9923 17.8447 18.2018 17.6162C18.2715 17.5412 18.3435 17.4684 18.4118 17.3912C18.465 17.3289 18.5258 17.2749 18.5783 17.2112L18.5618 17.1992ZM10.5 4.50169C11.1675 4.50169 11.82 4.69963 12.3751 5.07048C12.9301 5.44133 13.3627 5.96844 13.6181 6.58514C13.8735 7.20184 13.9404 7.88044 13.8102 8.53512C13.6799 9.18981 13.3585 9.79117 12.8865 10.2632C12.4145 10.7352 11.8131 11.0566 11.1584 11.1868C10.5037 11.3171 9.82515 11.2502 9.20845 10.9948C8.59175 10.7393 8.06464 10.3068 7.69379 9.75174C7.32294 9.19673 7.125 8.5442 7.125 7.87669C7.125 6.98159 7.48058 6.12314 8.11352 5.49021C8.74645 4.85727 9.6049 4.50169 10.5 4.50169ZM4.50525 17.1992C4.51826 16.2144 4.91846 15.2744 5.61927 14.5824C6.32008 13.8904 7.26514 13.5022 8.25 13.5017H12.75C13.7349 13.5022 14.6799 13.8904 15.3807 14.5824C16.0815 15.2744 16.4817 16.2144 16.4948 17.1992C14.8499 18.6814 12.7142 19.5017 10.5 19.5017C8.28581 19.5017 6.15012 18.6814 4.50525 17.1992Z" fill="#D2E1EF"/>
</svg>
